<svg xmlns="http://www.w3.org/2000/svg" xmlns:xlink="http://www.w3.org/1999/xlink" version="1.1" width="1000" height="1000" viewBox="0 0 1000 1000" xml:space="preserve">
<desc>Created with Fabric.js 3.5.0</desc>
<defs>
</defs>
<g transform="matrix(1.1276 0 0 1.1276 499.9827 499.9827)" id="334012">
<g style="">
		<g transform="matrix(1.7756 0 0 1.7756 0.0068 0.0068)" id="742718">
<circle style="stroke: none; stroke-width: 1; stroke-dasharray: none; stroke-linecap: butt; stroke-dashoffset: 0; stroke-linejoin: miter; stroke-miterlimit: 4; is-custom-font: none; font-file-url: none; fill: rgb(75,70,138); fill-rule: nonzero; opacity: 1;" cx="0" cy="0" r="213.282"/>
</g>
		<g transform="matrix(1.7756 0 0 1.7756 0.9547 -14.1758)" id="426689">
<path style="stroke: none; stroke-width: 1; stroke-dasharray: none; stroke-linecap: butt; stroke-dashoffset: 0; stroke-linejoin: miter; stroke-miterlimit: 4; is-custom-font: none; font-file-url: none; fill: rgb(102,89,185); fill-rule: nonzero; opacity: 1;" transform=" translate(-247.26, -212.2405)" d="M 451.466 160.323 C 425.577 71.695 343.718 6.946 246.726 6.946 a 214.263 214.263 0 0 0 -41.286 4.008 c -54.97 32.524 -85.762 94.647 -78.769 157.791 c 1.369 12.362 -5.962 23.913 -17.694 28.042 l -0.22 0.078 c -36.338 12.887 -60.246 45.147 -64.241 81.055 a 22.046 22.046 0 0 1 -1.462 5.801 c 18.915 60.741 64.26 109.82 122.573 133.814 A 107.835 107.835 0 0 0 161 402.077 c -3.265 -8.522 1.234 -17.937 9.926 -20.718 a 99.48 99.48 0 0 0 2.91 -0.981 c 24.41 -8.657 43.211 -26.057 54.135 -47.432 c 7.375 -14.43 23.02 -22.745 39.083 -20.597 c 35.831 4.791 74.037 -2.289 108.963 -23.95 c 44.99 -27.903 72.95 -76.173 75.449 -128.076 z" stroke-linecap="round"/>
</g>
		<g transform="matrix(1.443 0 0 1.4571 -11.4607 0.0071)" id="148542">
<path style="stroke: none; stroke-width: 1; stroke-dasharray: none; stroke-linecap: butt; stroke-dashoffset: 0; stroke-linejoin: miter; stroke-miterlimit: 4; is-custom-font: none; font-file-url: none; fill: rgb(247,249,170); fill-rule: nonzero; opacity: 1;" transform=" translate(-263.4165, -162.1691)" d="M 88.887 202.052 l 5.019 10.17 a 3.45 3.45 0 0 0 2.599 1.888 l 11.223 1.631 c 2.831 0.411 3.961 3.89 1.913 5.887 l -8.121 7.916 a 3.453 3.453 0 0 0 -0.993 3.055 l 1.917 11.178 c 0.484 2.82 -2.476 4.97 -5.008 3.638 l -10.038 -5.277 a 3.449 3.449 0 0 0 -3.212 0 l -10.038 5.277 c -2.532 1.331 -5.491 -0.819 -5.008 -3.638 l 1.917 -11.178 a 3.45 3.45 0 0 0 -0.993 -3.055 l -8.121 -7.916 c -2.048 -1.997 -0.918 -5.476 1.913 -5.887 l 11.223 -1.631 a 3.45 3.45 0 0 0 2.599 -1.888 l 5.019 -10.17 c 1.266 -2.565 4.924 -2.565 6.19 0 z m 349.059 0 l -5.019 10.17 a 3.45 3.45 0 0 1 -2.599 1.888 l -11.223 1.631 c -2.831 0.411 -3.961 3.89 -1.913 5.887 l 8.121 7.916 a 3.453 3.453 0 0 1 0.993 3.055 l -1.917 11.178 c -0.484 2.82 2.476 4.97 5.008 3.638 l 10.038 -5.277 a 3.449 3.449 0 0 1 3.212 0 l 10.038 5.277 c 2.532 1.331 5.491 -0.819 5.008 -3.638 l -1.917 -11.178 a 3.45 3.45 0 0 1 0.993 -3.055 l 8.121 -7.916 c 2.048 -1.997 0.918 -5.476 -1.913 -5.887 l -11.223 -1.631 a 3.45 3.45 0 0 1 -2.599 -1.888 l -5.019 -10.17 c -1.266 -2.565 -4.924 -2.565 -6.19 0 z M 372.019 22.061 L 367 32.231 a 3.45 3.45 0 0 1 -2.599 1.888 l -11.223 1.631 c -2.831 0.411 -3.961 3.89 -1.913 5.887 l 8.121 7.916 a 3.453 3.453 0 0 1 0.993 3.055 l -1.917 11.178 c -0.484 2.82 2.476 4.97 5.008 3.638 l 10.038 -5.277 a 3.449 3.449 0 0 1 3.212 0 l 10.038 5.277 c 2.532 1.331 5.491 -0.819 5.008 -3.638 l -1.917 -11.178 a 3.45 3.45 0 0 1 0.993 -3.055 l 8.121 -7.916 c 2.048 -1.997 0.918 -5.476 -1.913 -5.887 l -11.223 -1.631 a 3.45 3.45 0 0 1 -2.599 -1.888 l -5.019 -10.17 c -1.266 -2.565 -4.924 -2.565 -6.19 0 z M 145.511 39.832 c -9.776 0 -17.701 7.925 -17.701 17.701 s 7.925 17.701 17.701 17.701 s 17.701 -7.925 17.701 -17.701 s -7.925 -17.701 -17.701 -17.701 z m 112.45 27.997 a 7.444 7.444 0 1 0 0 14.889 a 7.444 7.444 0 0 0 0 -14.889 z m 49.282 223.858 a 6.257 6.257 0 1 0 0 12.514 a 6.257 6.257 0 0 0 0 -12.514 z" stroke-linecap="round"/>
</g>
		<g transform="matrix(1.7756 0 0 1.7756 -60.344 -47.2793)" id="989492">
<circle style="stroke: none; stroke-width: 1; stroke-dasharray: none; stroke-linecap: butt; stroke-dashoffset: 0; stroke-linejoin: miter; stroke-miterlimit: 4; is-custom-font: none; font-file-url: none; fill: rgb(145,128,214); fill-rule: nonzero; opacity: 1;" cx="0" cy="0" r="15.414"/>
</g>
		<g transform="matrix(1.7756 0 0 1.7756 86.4406 -67.9738)" id="463512">
<path style="stroke: none; stroke-width: 1; stroke-dasharray: none; stroke-linecap: butt; stroke-dashoffset: 0; stroke-linejoin: miter; stroke-miterlimit: 4; is-custom-font: none; font-file-url: none; fill: rgb(88,75,169); fill-rule: nonzero; opacity: 1;" transform=" translate(-309.8445, -186.9395)" d="M 413.766 111.027 c 0 8.513 -6.901 15.414 -15.414 15.414 s -15.414 -6.901 -15.414 -15.414 s 6.901 -15.414 15.414 -15.414 s 15.414 6.901 15.414 15.414 z m -26.953 81.199 c -15.465 0 -28.002 12.537 -28.002 28.002 s 12.537 28.002 28.002 28.002 c 15.465 0 28.002 -12.537 28.002 -28.002 s -12.538 -28.002 -28.002 -28.002 z M 225.01 237.994 c -11.121 0 -20.136 9.015 -20.136 20.136 c 0 11.121 9.015 20.136 20.136 20.136 c 11.121 0 20.136 -9.015 20.136 -20.136 c 0 -11.121 -9.016 -20.136 -20.136 -20.136 z" stroke-linecap="round"/>
</g>
		<g transform="matrix(1.7756 0 0 1.7756 -82.1304 -215.0991)" id="828121">
<circle style="stroke: none; stroke-width: 1; stroke-dasharray: none; stroke-linecap: butt; stroke-dashoffset: 0; stroke-linejoin: miter; stroke-miterlimit: 4; is-custom-font: none; font-file-url: none; fill: rgb(209,207,195); fill-rule: nonzero; opacity: 1;" cx="0" cy="0" r="8.467"/>
</g>
		<g transform="matrix(1.7756 0 0 1.7756 -30.5959 156.4223)" id="787599">
<path style="stroke: none; stroke-width: 1; stroke-dasharray: none; stroke-linecap: butt; stroke-dashoffset: 0; stroke-linejoin: miter; stroke-miterlimit: 4; is-custom-font: none; font-file-url: none; fill: rgb(196,166,255); fill-rule: nonzero; opacity: 1;" transform=" translate(-208.3065, -298.613)" d="M 154.227 294.784 c 0 11.121 -9.015 20.136 -20.136 20.136 s -20.136 -9.015 -20.136 -20.136 s 9.015 -20.136 20.136 -20.136 s 20.136 9.016 20.136 20.136 z m -7.865 -91.323 a 8.467 8.467 0 1 0 0 16.934 a 8.467 8.467 0 0 0 0 -16.934 z m 147.829 8.468 a 8.467 8.467 0 1 0 0 16.934 a 8.467 8.467 0 0 0 0 -16.934 z m -19.91 149.438 c -8.946 0 -16.199 7.253 -16.199 16.199 s 7.253 16.199 16.199 16.199 s 16.199 -7.253 16.199 -16.199 s -7.253 -16.199 -16.199 -16.199 z" stroke-linecap="round"/>
</g>
		<g transform="matrix(1.7756 0 0 1.7756 86.4383 -103.3929)" id="236907">
<path style="stroke: none; stroke-width: 1; stroke-dasharray: none; stroke-linecap: butt; stroke-dashoffset: 0; stroke-linejoin: miter; stroke-miterlimit: 4; is-custom-font: none; font-file-url: none; fill: rgb(223,210,255); fill-rule: nonzero; opacity: 1;" transform=" translate(-297.173, -208.781)" d="M 323.028 107.615 c 0 15.926 -12.911 28.837 -28.837 28.837 s -28.837 -12.911 -28.837 -28.837 s 12.911 -28.837 28.837 -28.837 s 28.837 12.911 28.837 28.837 z m -1.153 216.935 a 7.117 7.117 0 0 0 -7.117 7.117 c 0 3.931 3.186 7.117 7.117 7.117 s 7.117 -3.186 7.117 -7.117 a 7.117 7.117 0 0 0 -7.117 -7.117 z" stroke-linecap="round"/>
</g>
		<g transform="matrix(1.7756 0 0 1.7756 -334.048 -174.689)" id="135715">
<path style="stroke: none; stroke-width: 1; stroke-dasharray: none; stroke-linecap: butt; stroke-dashoffset: 0; stroke-linejoin: miter; stroke-miterlimit: 4; is-custom-font: none; font-file-url: none; fill: rgb(130,128,216); fill-rule: nonzero; opacity: 1;" transform=" translate(-58.59, -121.843)" d="M 65.01 117.532 a 15.33 15.33 0 0 0 -1.481 -6.56 a 212.67 212.67 0 0 0 -11.359 21.742 c 7.285 -1.227 12.84 -7.548 12.84 -15.182 z" stroke-linecap="round"/>
</g>
		<g transform="matrix(1.7756 0 0 1.7756 234.3003 273.6949)" id="657801">
<path style="stroke: none; stroke-width: 1; stroke-dasharray: none; stroke-linecap: butt; stroke-dashoffset: 0; stroke-linejoin: miter; stroke-miterlimit: 4; is-custom-font: none; font-file-url: none; fill: rgb(145,128,214); fill-rule: nonzero; opacity: 1;" transform=" translate(-378.6835, -374.3725)" d="M 404.772 363.442 c -4.86 -8.299 -13.863 -13.877 -24.175 -13.877 c -15.465 0 -28.002 12.537 -28.002 28.002 c 0 8.702 3.97 16.477 10.197 21.613 a 214.418 214.418 0 0 0 41.98 -35.738 z" stroke-linecap="round"/>
</g>
</g>
</g>
</svg>